<svg width="317" height="317" viewBox="0 0 317 317" fill="none" xmlns="http://www.w3.org/2000/svg">
<path d="M146.077 195.045V194.151C146.176 184.655 147.17 177.098 149.06 171.48C150.949 165.862 153.634 161.313 157.114 157.833C160.594 154.353 164.77 151.146 169.642 148.213C172.575 146.423 175.21 144.31 177.547 141.874C179.884 139.388 181.723 136.53 183.065 133.298C184.457 130.067 185.153 126.487 185.153 122.56C185.153 117.687 184.01 113.462 181.723 109.882C179.436 106.303 176.379 103.543 172.55 101.604C168.722 99.6655 164.472 98.696 159.798 98.696C155.722 98.696 151.794 99.5412 148.016 101.232C144.237 102.922 141.08 105.582 138.545 109.211C136.009 112.84 134.543 117.588 134.145 123.455H115.352C115.75 115.003 117.938 107.769 121.915 101.754C125.942 95.7379 131.237 91.1392 137.799 87.9574C144.411 84.7756 151.744 83.1847 159.798 83.1847C168.548 83.1847 176.155 84.9247 182.618 88.4048C189.131 91.8849 194.152 96.6577 197.682 102.723C201.261 108.788 203.051 115.699 203.051 123.455C203.051 128.923 202.206 133.87 200.516 138.295C198.875 142.719 196.489 146.672 193.357 150.152C190.274 153.632 186.545 156.714 182.17 159.399C177.795 162.134 174.29 165.017 171.656 168.05C169.021 171.033 167.107 174.587 165.913 178.714C164.72 182.84 164.074 187.986 163.974 194.151V195.045H146.077ZM155.622 239.193C151.943 239.193 148.786 237.876 146.151 235.241C143.516 232.606 142.199 229.449 142.199 225.77C142.199 222.091 143.516 218.934 146.151 216.299C148.786 213.664 151.943 212.347 155.622 212.347C159.301 212.347 162.458 213.664 165.093 216.299C167.728 218.934 169.045 222.091 169.045 225.77C169.045 228.206 168.424 230.443 167.181 232.482C165.988 234.52 164.372 236.161 162.334 237.403C160.345 238.597 158.108 239.193 155.622 239.193Z" fill="white"/>
<rect x="7.5" y="7.5" width="302" height="302" rx="62.5" stroke="#F9FAFB" stroke-width="15"/>
</svg>
